<?xml version="1.0" encoding="UTF-8"?>
<svg xmlns="http://www.w3.org/2000/svg" width="128" height="128" viewBox="0 0 128 128">
<path d="M95,9h1v1h-1zM95,10h1v1h-1zM94,11h2v1h-2zM94,12h2v1h-2zM94,13h2v1h-2zM94,14h2v1h-2zM41,15h5v1h-5zM60,15h2v1h-2zM94,15h2v1h-2zM40,16h6v1h-6zM59,16h4v1h-4zM94,16h2v1h-2zM40,17h6v1h-6zM59,17h4v1h-4zM94,17h2v1h-2zM17,18h9v1h-9zM40,18h7v1h-7zM60,18h3v1h-3zM76,18h3v1h-3zM94,18h2v1h-2zM15,19h13v1h-13zM40,19h7v1h-7zM60,19h4v1h-4zM75,19h4v1h-4zM94,19h2v1h-2zM14,20h15v1h-15zM40,20h7v1h-7zM61,20h3v1h-3zM74,20h4v1h-4zM93,20h3v1h-3zM13,21h5v1h-5zM26,21h4v1h-4zM40,21h7v1h-7zM62,21h3v1h-3zM72,21h5v1h-5zM93,21h3v1h-3zM13,22h4v1h-4zM27,22h4v1h-4zM40,22h7v1h-7zM62,22h3v1h-3zM71,22h5v1h-5zM93,22h3v1h-3zM13,23h3v1h-3zM28,23h4v1h-4zM40,23h7v1h-7zM63,23h3v1h-3zM70,23h5v1h-5zM93,23h3v1h-3zM13,24h3v1h-3zM29,24h3v1h-3zM41,24h6v1h-6zM63,24h3v1h-3zM69,24h4v1h-4zM93,24h3v1h-3zM30,25h3v1h-3zM41,25h6v1h-6zM64,25h3v1h-3zM68,25h4v1h-4zM93,25h3v1h-3zM30,26h3v1h-3zM41,26h6v1h-6zM64,26h6v1h-6zM92,26h4v1h-4zM31,27h3v1h-3zM41,27h6v1h-6zM65,27h4v1h-4zM92,27h4v1h-4zM12,28h1v1h-1zM32,28h2v1h-2zM41,28h6v1h-6zM64,28h5v1h-5zM92,28h3v1h-3zM12,29h1v1h-1zM32,29h2v1h-2zM41,29h6v1h-6zM62,29h7v1h-7zM92,29h3v1h-3zM12,30h1v1h-1zM32,30h3v1h-3zM41,30h6v1h-6zM61,30h4v1h-4zM67,30h3v1h-3zM92,30h3v1h-3zM12,31h1v1h-1zM32,31h3v1h-3zM41,31h6v1h-6zM59,31h4v1h-4zM67,31h3v1h-3zM92,31h3v1h-3zM12,32h2v1h-2zM32,32h3v1h-3zM41,32h6v1h-6zM58,32h3v1h-3zM68,32h3v1h-3zM91,32h4v1h-4zM13,33h2v1h-2zM32,33h3v1h-3zM41,33h6v1h-6zM56,33h3v1h-3zM69,33h2v1h-2zM91,33h4v1h-4zM14,34h2v1h-2zM32,34h2v1h-2zM41,34h6v1h-6zM69,34h3v1h-3zM91,34h4v1h-4zM15,35h2v1h-2zM30,35h4v1h-4zM41,35h6v1h-6zM70,35h2v1h-2zM91,35h4v1h-4zM16,36h3v1h-3zM29,36h4v1h-4zM41,36h6v1h-6zM70,36h3v1h-3zM91,36h4v1h-4zM17,37h15v1h-15zM41,37h6v1h-6zM71,37h2v1h-2zM90,37h5v1h-5zM20,38h10v1h-10zM41,38h6v1h-6zM72,38h1v1h-1zM90,38h4v1h-4zM41,39h6v1h-6zM72,39h2v1h-2zM90,39h4v1h-4zM41,40h6v1h-6zM73,40h1v1h-1zM90,40h4v1h-4zM13,41h15v1h-15zM41,41h6v1h-6zM90,41h4v1h-4zM13,42h26v1h-26zM41,42h6v1h-6zM90,42h4v1h-4zM13,43h57v1h-57zM89,43h5v1h-5zM13,44h71v1h-71zM89,44h5v1h-5zM14,45h88v1h-88zM27,46h85v1h-85zM40,47h7v1h-7zM66,47h53v1h-53zM41,48h5v1h-5zM89,48h5v1h-5zM40,49h6v1h-6zM89,49h5v1h-5zM40,50h6v1h-6zM89,50h5v1h-5zM40,51h6v1h-6zM89,51h5v1h-5zM40,52h6v1h-6zM89,52h5v1h-5zM40,53h6v1h-6zM89,53h5v1h-5zM40,54h6v1h-6zM59,54h8v1h-8zM89,54h5v1h-5zM40,55h5v1h-5zM57,55h12v1h-12zM88,55h6v1h-6zM40,56h5v1h-5zM56,56h14v1h-14zM88,56h5v1h-5zM40,57h5v1h-5zM55,57h5v1h-5zM67,57h4v1h-4zM88,57h5v1h-5zM40,58h5v1h-5zM55,58h3v1h-3zM68,58h4v1h-4zM88,58h5v1h-5zM40,59h5v1h-5zM54,59h4v1h-4zM69,59h4v1h-4zM88,59h5v1h-5zM40,60h5v1h-5zM55,60h2v1h-2zM70,60h4v1h-4zM88,60h5v1h-5zM39,61h5v1h-5zM71,61h3v1h-3zM87,61h6v1h-6zM39,62h5v1h-5zM72,62h3v1h-3zM87,62h6v1h-6zM39,63h5v1h-5zM72,63h3v1h-3zM87,63h6v1h-6zM39,64h5v1h-5zM73,64h3v1h-3zM87,64h6v1h-6zM39,65h5v1h-5zM53,65h1v1h-1zM73,65h3v1h-3zM87,65h6v1h-6zM39,66h5v1h-5zM53,66h1v1h-1zM74,66h2v1h-2zM87,66h5v1h-5zM38,67h5v1h-5zM53,67h2v1h-2zM74,67h2v1h-2zM87,67h5v1h-5zM38,68h5v1h-5zM54,68h1v1h-1zM74,68h2v1h-2zM86,68h6v1h-6zM38,69h5v1h-5zM54,69h2v1h-2zM73,69h3v1h-3zM86,69h6v1h-6zM38,70h5v1h-5zM55,70h2v1h-2zM73,70h3v1h-3zM86,70h6v1h-6zM38,71h5v1h-5zM56,71h2v1h-2zM72,71h3v1h-3zM86,71h6v1h-6zM38,72h4v1h-4zM57,72h4v1h-4zM70,72h4v1h-4zM86,72h6v1h-6zM38,73h4v1h-4zM59,73h14v1h-14zM85,73h6v1h-6zM38,74h4v1h-4zM61,74h10v1h-10zM85,74h6v1h-6zM37,75h5v1h-5zM85,75h6v1h-6zM37,76h4v1h-4zM85,76h6v1h-6zM37,77h4v1h-4zM85,77h6v1h-6zM13,78h28v1h-28zM84,78h6v1h-6zM9,79h37v1h-37zM84,79h6v1h-6zM26,80h25v1h-25zM84,80h6v1h-6zM36,81h19v1h-19zM84,81h6v1h-6zM36,82h4v1h-4zM43,82h17v1h-17zM84,82h6v1h-6zM36,83h4v1h-4zM49,83h15v1h-15zM84,83h6v1h-6zM36,84h4v1h-4zM52,84h17v1h-17zM83,84h7v1h-7zM36,85h4v1h-4zM56,85h19v1h-19zM83,85h7v1h-7zM36,86h3v1h-3zM59,86h21v1h-21zM83,86h6v1h-6zM35,87h4v1h-4zM63,87h26v1h-26zM35,88h4v1h-4zM68,88h26v1h-26zM35,89h4v1h-4zM48,89h3v1h-3zM71,89h31v1h-31zM35,90h4v1h-4zM48,90h4v1h-4zM77,90h30v1h-30zM35,91h3v1h-3zM49,91h3v1h-3zM65,91h3v1h-3zM81,91h34v1h-34zM35,92h3v1h-3zM49,92h4v1h-4zM64,92h4v1h-4zM82,92h33v1h-33zM35,93h3v1h-3zM50,93h3v1h-3zM63,93h5v1h-5zM81,93h7v1h-7zM95,93h21v1h-21zM35,94h3v1h-3zM50,94h4v1h-4zM62,94h4v1h-4zM81,94h7v1h-7zM100,94h16v1h-16zM34,95h3v1h-3zM51,95h3v1h-3zM60,95h5v1h-5zM81,95h7v1h-7zM105,95h11v1h-11zM34,96h3v1h-3zM51,96h4v1h-4zM59,96h5v1h-5zM81,96h6v1h-6zM108,96h6v1h-6zM34,97h3v1h-3zM52,97h3v1h-3zM58,97h5v1h-5zM80,97h7v1h-7zM34,98h3v1h-3zM53,98h3v1h-3zM57,98h4v1h-4zM80,98h7v1h-7zM34,99h2v1h-2zM53,99h7v1h-7zM80,99h7v1h-7zM97,99h7v1h-7zM33,100h3v1h-3zM54,100h4v1h-4zM80,100h7v1h-7zM95,100h12v1h-12zM33,101h3v1h-3zM53,101h4v1h-4zM79,101h7v1h-7zM94,101h14v1h-14zM33,102h3v1h-3zM51,102h7v1h-7zM79,102h7v1h-7zM93,102h6v1h-6zM104,102h5v1h-5zM33,103h2v1h-2zM50,103h4v1h-4zM55,103h3v1h-3zM79,103h7v1h-7zM92,103h4v1h-4zM106,103h4v1h-4zM33,104h2v1h-2zM49,104h3v1h-3zM56,104h3v1h-3zM79,104h7v1h-7zM92,104h4v1h-4zM107,104h4v1h-4zM32,105h2v1h-2zM47,105h3v1h-3zM57,105h2v1h-2zM78,105h7v1h-7zM92,105h3v1h-3zM108,105h3v1h-3zM32,106h2v1h-2zM46,106h3v1h-3zM57,106h3v1h-3zM78,106h7v1h-7zM93,106h2v1h-2zM109,106h3v1h-3zM32,107h2v1h-2zM58,107h2v1h-2zM78,107h7v1h-7zM109,107h4v1h-4zM32,108h1v1h-1zM59,108h2v1h-2zM77,108h8v1h-8zM110,108h3v1h-3zM32,109h1v1h-1zM59,109h2v1h-2zM77,109h8v1h-8zM111,109h2v1h-2zM60,110h2v1h-2zM77,110h7v1h-7zM111,110h3v1h-3zM60,111h2v1h-2zM77,111h7v1h-7zM91,111h1v1h-1zM111,111h3v1h-3zM61,112h2v1h-2zM76,112h8v1h-8zM91,112h2v1h-2zM112,112h2v1h-2zM62,113h1v1h-1zM76,113h8v1h-8zM92,113h1v1h-1zM112,113h2v1h-2zM76,114h7v1h-7zM92,114h2v1h-2zM112,114h2v1h-2zM76,115h7v1h-7zM93,115h2v1h-2zM111,115h3v1h-3zM77,116h6v1h-6zM94,116h2v1h-2zM110,116h3v1h-3zM78,117h3v1h-3zM95,117h3v1h-3zM109,117h4v1h-4zM96,118h5v1h-5zM106,118h6v1h-6zM98,119h12v1h-12z" fill="#000"/>
</svg>